<svg width="32" height="35" viewBox="0 0 32 35" fill="none" xmlns="http://www.w3.org/2000/svg">
<path d="M9 33C9.55228 33 10 32.5523 10 32C10 31.4477 9.55228 31 9 31C8.44772 31 8 31.4477 8 32C8 32.5523 8.44772 33 9 33Z" stroke="white" stroke-width="2" stroke-linecap="round" stroke-linejoin="round"/>
<path d="M20 33C20.5523 33 21 32.5523 21 32C21 31.4477 20.5523 31 20 31C19.4477 31 19 31.4477 19 32C19 32.5523 19.4477 33 20 33Z" stroke="white" stroke-width="2" stroke-linecap="round" stroke-linejoin="round"/>
<path d="M1 12H5L7.68 25.39C7.77144 25.8504 8.02191 26.264 8.38755 26.5583C8.75318 26.8526 9.2107 27.009 9.68 27H19.4C19.8693 27.009 20.3268 26.8526 20.6925 26.5583C21.0581 26.264 21.3086 25.8504 21.4 25.39L23 17H6" stroke="white" stroke-width="2" stroke-linecap="round" stroke-linejoin="round"/>
<circle cx="24" cy="8" r="8" fill="white"/>
<path d="M21.468 10.356C21.74 10.14 21.864 10.04 21.84 10.056C22.624 9.408 23.24 8.876 23.688 8.46C24.144 8.044 24.528 7.608 24.84 7.152C25.152 6.696 25.308 6.252 25.308 5.82C25.308 5.492 25.232 5.236 25.08 5.052C24.928 4.868 24.7 4.776 24.396 4.776C24.092 4.776 23.852 4.892 23.676 5.124C23.508 5.348 23.424 5.668 23.424 6.084H21.444C21.46 5.404 21.604 4.836 21.876 4.38C22.156 3.924 22.52 3.588 22.968 3.372C23.424 3.156 23.928 3.048 24.48 3.048C25.432 3.048 26.148 3.292 26.628 3.78C27.116 4.268 27.36 4.904 27.36 5.688C27.36 6.544 27.068 7.34 26.484 8.076C25.9 8.804 25.156 9.516 24.252 10.212H27.492V11.88H21.468V10.356Z" fill="#00A5F0"/>
</svg>
