<svg width="24" height="21" viewBox="0 0 24 21" fill="none" xmlns="http://www.w3.org/2000/svg">
<path id="Vector" d="M20.9155 2.61183C20.403 2.10083 19.7946 1.69547 19.1249 1.41891C18.4552 1.14235 17.7374 1 17.0125 1C16.2875 1 15.5697 1.14235 14.9 1.41891C14.2304 1.69547 13.6219 2.10083 13.1094 2.61183L12.0459 3.67183L10.9823 2.61183C9.94717 1.58013 8.54321 1.00053 7.07929 1.00053C5.61537 1.00053 4.21141 1.58013 3.17626 2.61183C2.14111 3.64352 1.55957 5.04279 1.55957 6.50183C1.55957 7.96086 2.14111 9.36013 3.17626 10.3918L4.23981 11.4518L12.0459 19.2318L19.8519 11.4518L20.9155 10.3918C21.4282 9.88107 21.8349 9.27464 22.1124 8.60718C22.3899 7.93972 22.5327 7.22431 22.5327 6.50183C22.5327 5.77934 22.3899 5.06393 22.1124 4.39647C21.8349 3.72901 21.4282 3.12258 20.9155 2.61183Z" fill="#002440" stroke="#002440" stroke-width="2" stroke-linecap="round" stroke-linejoin="round"/>
</svg>
