<svg width="24" height="21" viewBox="0 0 24 21" fill="none" xmlns="http://www.w3.org/2000/svg">
<path id="Vector" d="M20.9154 2.61183C20.4029 2.10083 19.7944 1.69547 19.1247 1.41891C18.455 1.14235 17.7372 1 17.0123 1C16.2874 1 15.5696 1.14235 14.8999 1.41891C14.2302 1.69547 13.6218 2.10083 13.1093 2.61183L12.0458 3.67183L10.9822 2.61183C9.94705 1.58013 8.54309 1.00053 7.07917 1.00053C5.61525 1.00053 4.21129 1.58013 3.17614 2.61183C2.14099 3.64352 1.55945 5.04279 1.55945 6.50183C1.55945 7.96086 2.14099 9.36013 3.17614 10.3918L4.23969 11.4518L12.0458 19.2318L19.8518 11.4518L20.9154 10.3918C21.4281 9.88107 21.8348 9.27464 22.1123 8.60718C22.3898 7.93972 22.5326 7.22431 22.5326 6.50183C22.5326 5.77934 22.3898 5.06393 22.1123 4.39647C21.8348 3.72901 21.4281 3.12258 20.9154 2.61183Z" stroke="#002440" stroke-width="2" stroke-linecap="round" stroke-linejoin="round"/>
</svg>
