<svg width="44" height="45" viewBox="0 0 44 45" fill="none" xmlns="http://www.w3.org/2000/svg">
<g id="Icon-aparelhos">
<g id="Group">
<path id="Vector" d="M8.0526 6H2V20C2 25 6 31 14 31C22 31 26 25 26 20C26 15 26 6 26 6H19.9474M8.0526 3V9M19.9474 3V9" stroke="#0073CE" stroke-width="3" stroke-linecap="round" stroke-linejoin="round"/>
<path id="Vector_2" d="M38 22C40.2091 22 42 20.2092 42 18C42 15.7909 40.2091 14 38 14C35.7909 14 34 15.7909 34 18C34 20.2092 35.7909 22 38 22Z" fill="#0073CE" fill-opacity="0.1" stroke="#0073CE" stroke-width="3" stroke-linecap="round" stroke-linejoin="round"/>
<path id="Vector_3" d="M14 31C14 37.6274 19.3726 43 26 43C32.6274 43 38 37.6274 38 31V22" stroke="#0073CE" stroke-width="3" stroke-linecap="round" stroke-linejoin="round"/>
</g>
</g>
</svg>
