<svg width="295" height="40" viewBox="0 0 295 40" fill="none" xmlns="http://www.w3.org/2000/svg">
<circle cx="187" cy="20" r="20" fill="#B7B7B7"/>
<path d="M196 24V16C196 15.6493 195.907 15.3048 195.732 15.0012C195.556 14.6975 195.304 14.4454 195 14.27L188 10.27C187.696 10.0945 187.351 10.002 187 10.002C186.649 10.002 186.304 10.0945 186 10.27L179 14.27C178.696 14.4454 178.444 14.6975 178.268 15.0012C178.093 15.3048 178 15.6493 178 16V24C178 24.3507 178.093 24.6952 178.268 24.9988C178.444 25.3025 178.696 25.5546 179 25.73L186 29.73C186.304 29.9055 186.649 29.9979 187 29.9979C187.351 29.9979 187.696 29.9055 188 29.73L195 25.73C195.304 25.5546 195.556 25.3025 195.732 24.9988C195.907 24.6952 196 24.3507 196 24Z" stroke="white" stroke-width="2" stroke-linecap="round" stroke-linejoin="round"/>
<path d="M178.27 14.96L187 20.01L195.73 14.96" stroke="white" stroke-width="2" stroke-linecap="round" stroke-linejoin="round"/>
<path d="M187 30.08V20" stroke="white" stroke-width="2" stroke-linecap="round" stroke-linejoin="round"/>
<path d="M54.86 18.14C54.86 19.3 54.46 20.2667 53.66 21.04C52.8733 21.8 51.6667 22.18 50.04 22.18H47.36V28H45.54V14.06H50.04C51.6133 14.06 52.8067 14.44 53.62 15.2C54.4467 15.96 54.86 16.94 54.86 18.14ZM50.04 20.68C51.0533 20.68 51.8 20.46 52.28 20.02C52.76 19.58 53 18.9533 53 18.14C53 16.42 52.0133 15.56 50.04 15.56H47.36V20.68H50.04ZM58.942 18.82C59.262 18.1933 59.7154 17.7067 60.302 17.36C60.902 17.0133 61.6287 16.84 62.482 16.84V18.72H62.002C59.962 18.72 58.942 19.8267 58.942 22.04V28H57.122V17.04H58.942V18.82ZM69.363 28.18C68.3363 28.18 67.403 27.9467 66.563 27.48C65.7363 27.0133 65.083 26.3533 64.603 25.5C64.1363 24.6333 63.903 23.6333 63.903 22.5C63.903 21.38 64.143 20.3933 64.623 19.54C65.1163 18.6733 65.783 18.0133 66.623 17.56C67.463 17.0933 68.403 16.86 69.443 16.86C70.483 16.86 71.423 17.0933 72.263 17.56C73.103 18.0133 73.763 18.6667 74.243 19.52C74.7363 20.3733 74.983 21.3667 74.983 22.5C74.983 23.6333 74.7296 24.6333 74.223 25.5C73.7296 26.3533 73.0563 27.0133 72.203 27.48C71.3496 27.9467 70.403 28.18 69.363 28.18ZM69.363 26.58C70.0163 26.58 70.6296 26.4267 71.203 26.12C71.7763 25.8133 72.2363 25.3533 72.583 24.74C72.943 24.1267 73.123 23.38 73.123 22.5C73.123 21.62 72.9496 20.8733 72.603 20.26C72.2563 19.6467 71.803 19.1933 71.243 18.9C70.683 18.5933 70.0763 18.44 69.423 18.44C68.7563 18.44 68.143 18.5933 67.583 18.9C67.0363 19.1933 66.5963 19.6467 66.263 20.26C65.9296 20.8733 65.763 21.62 65.763 22.5C65.763 23.3933 65.923 24.1467 66.243 24.76C66.5763 25.3733 67.0163 25.8333 67.563 26.14C68.1096 26.4333 68.7096 26.58 69.363 26.58ZM76.6959 22.48C76.6959 21.36 76.9226 20.38 77.3759 19.54C77.8293 18.6867 78.4493 18.0267 79.2359 17.56C80.0359 17.0933 80.9293 16.86 81.9159 16.86C82.7693 16.86 83.5626 17.06 84.2959 17.46C85.0293 17.8467 85.5893 18.36 85.9759 19V13.2H87.8159V28H85.9759V25.94C85.6159 26.5933 85.0826 27.1333 84.3759 27.56C83.6693 27.9733 82.8426 28.18 81.8959 28.18C80.9226 28.18 80.0359 27.94 79.2359 27.46C78.4493 26.98 77.8293 26.3067 77.3759 25.44C76.9226 24.5733 76.6959 23.5867 76.6959 22.48ZM85.9759 22.5C85.9759 21.6733 85.8093 20.9533 85.4759 20.34C85.1426 19.7267 84.6893 19.26 84.1159 18.94C83.5559 18.6067 82.9359 18.44 82.2559 18.44C81.5759 18.44 80.9559 18.6 80.3959 18.92C79.8359 19.24 79.3893 19.7067 79.0559 20.32C78.7226 20.9333 78.5559 21.6533 78.5559 22.48C78.5559 23.32 78.7226 24.0533 79.0559 24.68C79.3893 25.2933 79.8359 25.7667 80.3959 26.1C80.9559 26.42 81.5759 26.58 82.2559 26.58C82.9359 26.58 83.5559 26.42 84.1159 26.1C84.6893 25.7667 85.1426 25.2933 85.4759 24.68C85.8093 24.0533 85.9759 23.3267 85.9759 22.5ZM100.612 17.04V28H98.7916V26.38C98.4449 26.94 97.9582 27.38 97.3316 27.7C96.7182 28.0067 96.0382 28.16 95.2916 28.16C94.4382 28.16 93.6716 27.9867 92.9916 27.64C92.3116 27.28 91.7716 26.7467 91.3716 26.04C90.9849 25.3333 90.7916 24.4733 90.7916 23.46V17.04H92.5916V23.22C92.5916 24.3 92.8649 25.1333 93.4116 25.72C93.9582 26.2933 94.7049 26.58 95.6516 26.58C96.6249 26.58 97.3916 26.28 97.9516 25.68C98.5116 25.08 98.7916 24.2067 98.7916 23.06V17.04H100.612ZM105.905 18.54V25C105.905 25.5333 106.018 25.9133 106.245 26.14C106.471 26.3533 106.865 26.46 107.425 26.46H108.765V28H107.125C106.111 28 105.351 27.7667 104.845 27.3C104.338 26.8333 104.085 26.0667 104.085 25V18.54H102.665V17.04H104.085V14.28H105.905V17.04H108.765V18.54H105.905ZM115.75 28.18C114.723 28.18 113.79 27.9467 112.95 27.48C112.123 27.0133 111.47 26.3533 110.99 25.5C110.523 24.6333 110.29 23.6333 110.29 22.5C110.29 21.38 110.53 20.3933 111.01 19.54C111.503 18.6733 112.17 18.0133 113.01 17.56C113.85 17.0933 114.79 16.86 115.83 16.86C116.87 16.86 117.81 17.0933 118.65 17.56C119.49 18.0133 120.15 18.6667 120.63 19.52C121.123 20.3733 121.37 21.3667 121.37 22.5C121.37 23.6333 121.116 24.6333 120.61 25.5C120.116 26.3533 119.443 27.0133 118.59 27.48C117.736 27.9467 116.79 28.18 115.75 28.18ZM115.75 26.58C116.403 26.58 117.016 26.4267 117.59 26.12C118.163 25.8133 118.623 25.3533 118.97 24.74C119.33 24.1267 119.51 23.38 119.51 22.5C119.51 21.62 119.336 20.8733 118.99 20.26C118.643 19.6467 118.19 19.1933 117.63 18.9C117.07 18.5933 116.463 18.44 115.81 18.44C115.143 18.44 114.53 18.5933 113.97 18.9C113.423 19.1933 112.983 19.6467 112.65 20.26C112.316 20.8733 112.15 21.62 112.15 22.5C112.15 23.3933 112.31 24.1467 112.63 24.76C112.963 25.3733 113.403 25.8333 113.95 26.14C114.496 26.4333 115.096 26.58 115.75 26.58Z" fill="#0073CE"/>
<path d="M211.86 21.02C211.86 19.66 212.167 18.44 212.78 17.36C213.393 16.2667 214.227 15.4133 215.28 14.8C216.347 14.1867 217.527 13.88 218.82 13.88C220.34 13.88 221.667 14.2467 222.8 14.98C223.933 15.7133 224.76 16.7533 225.28 18.1H223.1C222.713 17.26 222.153 16.6133 221.42 16.16C220.7 15.7067 219.833 15.48 218.82 15.48C217.847 15.48 216.973 15.7067 216.2 16.16C215.427 16.6133 214.82 17.26 214.38 18.1C213.94 18.9267 213.72 19.9 213.72 21.02C213.72 22.1267 213.94 23.1 214.38 23.94C214.82 24.7667 215.427 25.4067 216.2 25.86C216.973 26.3133 217.847 26.54 218.82 26.54C219.833 26.54 220.7 26.32 221.42 25.88C222.153 25.4267 222.713 24.78 223.1 23.94H225.28C224.76 25.2733 223.933 26.3067 222.8 27.04C221.667 27.76 220.34 28.12 218.82 28.12C217.527 28.12 216.347 27.82 215.28 27.22C214.227 26.6067 213.393 25.76 212.78 24.68C212.167 23.6 211.86 22.38 211.86 21.02ZM232.769 28.18C231.743 28.18 230.809 27.9467 229.969 27.48C229.143 27.0133 228.489 26.3533 228.009 25.5C227.543 24.6333 227.309 23.6333 227.309 22.5C227.309 21.38 227.549 20.3933 228.029 19.54C228.523 18.6733 229.189 18.0133 230.029 17.56C230.869 17.0933 231.809 16.86 232.849 16.86C233.889 16.86 234.829 17.0933 235.669 17.56C236.509 18.0133 237.169 18.6667 237.649 19.52C238.143 20.3733 238.389 21.3667 238.389 22.5C238.389 23.6333 238.136 24.6333 237.629 25.5C237.136 26.3533 236.463 27.0133 235.609 27.48C234.756 27.9467 233.809 28.18 232.769 28.18ZM232.769 26.58C233.423 26.58 234.036 26.4267 234.609 26.12C235.183 25.8133 235.643 25.3533 235.989 24.74C236.349 24.1267 236.529 23.38 236.529 22.5C236.529 21.62 236.356 20.8733 236.009 20.26C235.663 19.6467 235.209 19.1933 234.649 18.9C234.089 18.5933 233.483 18.44 232.829 18.44C232.163 18.44 231.549 18.5933 230.989 18.9C230.443 19.1933 230.003 19.6467 229.669 20.26C229.336 20.8733 229.169 21.62 229.169 22.5C229.169 23.3933 229.329 24.1467 229.649 24.76C229.983 25.3733 230.423 25.8333 230.969 26.14C231.516 26.4333 232.116 26.58 232.769 26.58ZM253.962 16.84C254.816 16.84 255.576 17.02 256.242 17.38C256.909 17.7267 257.436 18.2533 257.822 18.96C258.209 19.6667 258.402 20.5267 258.402 21.54V28H256.602V21.8C256.602 20.7067 256.329 19.8733 255.782 19.3C255.249 18.7133 254.522 18.42 253.602 18.42C252.656 18.42 251.902 18.7267 251.342 19.34C250.782 19.94 250.502 20.8133 250.502 21.96V28H248.702V21.8C248.702 20.7067 248.429 19.8733 247.882 19.3C247.349 18.7133 246.622 18.42 245.702 18.42C244.756 18.42 244.002 18.7267 243.442 19.34C242.882 19.94 242.602 20.8133 242.602 21.96V28H240.782V17.04H242.602V18.62C242.962 18.0467 243.442 17.6067 244.042 17.3C244.656 16.9933 245.329 16.84 246.062 16.84C246.982 16.84 247.796 17.0467 248.502 17.46C249.209 17.8733 249.736 18.48 250.082 19.28C250.389 18.5067 250.896 17.9067 251.602 17.48C252.309 17.0533 253.096 16.84 253.962 16.84ZM263.208 19.06C263.568 18.4333 264.101 17.9133 264.808 17.5C265.528 17.0733 266.361 16.86 267.308 16.86C268.281 16.86 269.161 17.0933 269.948 17.56C270.748 18.0267 271.374 18.6867 271.828 19.54C272.281 20.38 272.508 21.36 272.508 22.48C272.508 23.5867 272.281 24.5733 271.828 25.44C271.374 26.3067 270.748 26.98 269.948 27.46C269.161 27.94 268.281 28.18 267.308 28.18C266.374 28.18 265.548 27.9733 264.828 27.56C264.121 27.1333 263.581 26.6067 263.208 25.98V33.2H261.388V17.04H263.208V19.06ZM270.648 22.48C270.648 21.6533 270.481 20.9333 270.148 20.32C269.814 19.7067 269.361 19.24 268.788 18.92C268.228 18.6 267.608 18.44 266.928 18.44C266.261 18.44 265.641 18.6067 265.068 18.94C264.508 19.26 264.054 19.7333 263.708 20.36C263.374 20.9733 263.208 21.6867 263.208 22.5C263.208 23.3267 263.374 24.0533 263.708 24.68C264.054 25.2933 264.508 25.7667 265.068 26.1C265.641 26.42 266.261 26.58 266.928 26.58C267.608 26.58 268.228 26.42 268.788 26.1C269.361 25.7667 269.814 25.2933 270.148 24.68C270.481 24.0533 270.648 23.32 270.648 22.48ZM276.723 18.82C277.043 18.1933 277.497 17.7067 278.083 17.36C278.683 17.0133 279.41 16.84 280.263 16.84V18.72H279.783C277.743 18.72 276.723 19.8267 276.723 22.04V28H274.903V17.04H276.723V18.82ZM281.684 22.48C281.684 21.36 281.911 20.38 282.364 19.54C282.818 18.6867 283.438 18.0267 284.224 17.56C285.024 17.0933 285.911 16.86 286.884 16.86C287.844 16.86 288.678 17.0667 289.384 17.48C290.091 17.8933 290.618 18.4133 290.964 19.04V17.04H292.804V28H290.964V25.96C290.604 26.6 290.064 27.1333 289.344 27.56C288.638 27.9733 287.811 28.18 286.864 28.18C285.891 28.18 285.011 27.94 284.224 27.46C283.438 26.98 282.818 26.3067 282.364 25.44C281.911 24.5733 281.684 23.5867 281.684 22.48ZM290.964 22.5C290.964 21.6733 290.798 20.9533 290.464 20.34C290.131 19.7267 289.678 19.26 289.104 18.94C288.544 18.6067 287.924 18.44 287.244 18.44C286.564 18.44 285.944 18.6 285.384 18.92C284.824 19.24 284.378 19.7067 284.044 20.32C283.711 20.9333 283.544 21.6533 283.544 22.48C283.544 23.32 283.711 24.0533 284.044 24.68C284.378 25.2933 284.824 25.7667 285.384 26.1C285.944 26.42 286.564 26.58 287.244 26.58C287.924 26.58 288.544 26.42 289.104 26.1C289.678 25.7667 290.131 25.2933 290.464 24.68C290.798 24.0533 290.964 23.3267 290.964 22.5Z" fill="#7B7B7B"/>
<circle cx="20" cy="20" r="20" fill="#0073CE"/>
<path d="M20 9V31" stroke="white" stroke-width="2" stroke-linecap="round" stroke-linejoin="round"/>
<path d="M25 13H17.5C16.5717 13 15.6815 13.3687 15.0251 14.0251C14.3687 14.6815 14 15.5717 14 16.5C14 17.4283 14.3687 18.3185 15.0251 18.9749C15.6815 19.6313 16.5717 20 17.5 20H22.5C23.4283 20 24.3185 20.3687 24.9749 21.0251C25.6313 21.6815 26 22.5717 26 23.5C26 24.4283 25.6313 25.3185 24.9749 25.9749C24.3185 26.6313 23.4283 27 22.5 27H14" stroke="white" stroke-width="2" stroke-linecap="round" stroke-linejoin="round"/>
<path d="M139 29L149 21L139 13" stroke="#002440" stroke-width="3" stroke-linecap="round" stroke-linejoin="round"/>
</svg>
