<svg width="62" height="29" viewBox="0 0 62 29" fill="none" xmlns="http://www.w3.org/2000/svg">
<g id="Icon - remedio">
<path id="Vector" d="M2 14.5C2 17.8152 3.31696 20.9946 5.66116 23.3388C8.00537 25.683 11.1848 27 14.5 27L47.8333 27C51.1485 27 54.328 25.683 56.6722 23.3388C59.0164 20.9946 60.3333 17.8152 60.3333 14.5C60.3333 11.1848 59.0164 8.00537 56.6722 5.66116C54.328 3.31696 51.1485 2 47.8333 2L14.5 2C11.1848 2 8.00537 3.31696 5.66116 5.66116C3.31696 8.00537 2 11.1848 2 14.5Z" stroke="#0073CE" stroke-width="3" stroke-linecap="round" stroke-linejoin="round"/>
<path id="Vector_2" d="M31.1667 25.2605L30.9147 4.42783" stroke="#0073CE" stroke-width="3" stroke-linecap="round" stroke-linejoin="round"/>
</g>
</svg>
