<svg width="284" height="42" viewBox="0 0 284 42" fill="none" xmlns="http://www.w3.org/2000/svg">
<path d="M22 2L28.18 14.52L42 16.54L32 26.28L34.36 40.04L22 33.54L9.64 40.04L12 26.28L2 16.54L15.82 14.52L22 2Z" stroke="#FFC800" stroke-width="3" stroke-linecap="round" stroke-linejoin="round"/>
<path d="M82 2L88.18 14.52L102 16.54L92 26.28L94.36 40.04L82 33.54L69.64 40.04L72 26.28L62 16.54L75.82 14.52L82 2Z" stroke="#FFC800" stroke-width="3" stroke-linecap="round" stroke-linejoin="round"/>
<path d="M142 2L148.18 14.52L162 16.54L152 26.28L154.36 40.04L142 33.54L129.64 40.04L132 26.28L122 16.54L135.82 14.52L142 2Z" stroke="#FFC800" stroke-width="3" stroke-linecap="round" stroke-linejoin="round"/>
<path d="M202 2L208.18 14.52L222 16.54L212 26.28L214.36 40.04L202 33.54L189.64 40.04L192 26.28L182 16.54L195.82 14.52L202 2Z" stroke="#FFC800" stroke-width="3" stroke-linecap="round" stroke-linejoin="round"/>
<path d="M262 2L268.18 14.52L282 16.54L272 26.28L274.36 40.04L262 33.54L249.64 40.04L252 26.28L242 16.54L255.82 14.52L262 2Z" stroke="#FFC800" stroke-width="3" stroke-linecap="round" stroke-linejoin="round"/>
</svg>
