<svg width="100" height="46" viewBox="0 0 100 46" fill="none" xmlns="http://www.w3.org/2000/svg">
<g id="Group 145">
<rect id="Rectangle 360" width="100" height="46" rx="23" fill="#00A5F0"/>
<rect id="Rectangle 363" x="35.2944" y="3.83331" width="16.1765" height="38.3333" fill="white"/>
<rect id="Rectangle 361" x="4.4126" y="3.83331" width="47.0588" height="38.3333" rx="19.1667" fill="white"/>
<rect id="Rectangle 362" x="33.8235" y="3.83331" width="15.4412" height="38.3333" fill="white"/>
<path id="Vector" d="M76.0461 12.9115L76.0322 12.9172L76.0186 12.9234C75.9625 12.9489 75.8959 12.9778 75.8174 13.0119C74.4093 13.6225 69.158 15.9 51.1603 30.592C51.1466 30.6028 51.1313 30.615 51.1187 30.625C51.1134 30.6293 51.1086 30.6331 51.1046 30.6363C51.0859 30.6511 51.0699 30.6637 51.0544 30.6753C51.0429 30.6839 51.0324 30.6914 51.0229 30.698L50.7588 30.5733L50.6873 30.525C50.624 30.4821 50.5382 30.4237 50.4325 30.3516C50.2211 30.2075 49.9323 30.0099 49.5887 29.7748C49.1536 29.4769 48.6317 29.1193 48.0697 28.7342C47.7443 28.5113 47.4054 28.2791 47.0623 28.0441C45.1945 26.7645 43.1935 25.3952 42.5542 24.9689L42.5525 24.9677C42.5111 24.9402 42.4704 24.9131 42.4306 24.8866C42.246 24.7636 42.081 24.6537 41.9532 24.5815C41.874 24.5368 41.7591 24.4769 41.6261 24.4408C41.4799 24.4011 41.266 24.3782 41.0381 24.474L41.0125 24.4848L40.9877 24.4975C40.8053 24.5908 40.6713 24.748 40.6046 24.9337C40.546 25.0971 40.553 25.243 40.5642 25.3285C40.5853 25.4907 40.6484 25.6284 40.6838 25.701C40.7633 25.8641 40.8864 26.0553 40.9997 26.2277C41.2195 26.5661 44.0079 31.023 46.4049 35.354C47.4272 37.2097 48.3366 38.9004 48.9993 40.1434C49.4289 40.9492 49.7603 41.5771 49.9488 41.9342C50.0395 42.1061 50.0971 42.2152 50.1166 42.2513L50.1251 42.267C50.2256 42.4541 50.3532 42.6917 50.5039 42.8829C50.6645 43.0867 50.9395 43.3531 51.3653 43.404C51.5598 43.4272 51.7654 43.4151 51.9693 43.3398C52.1719 43.265 52.323 43.1461 52.4356 43.0308C52.5418 42.9219 52.6272 42.8017 52.6914 42.7076C52.7302 42.6506 52.7568 42.6102 52.7822 42.5719C52.8129 42.5253 52.8417 42.4817 52.8881 42.4148C52.909 42.3846 52.9533 42.3174 53.0207 42.215C54.2185 40.3973 62.7172 27.5002 77.1599 14.439L77.1638 14.4354C77.18 14.4205 77.198 14.4042 77.2171 14.3867C77.3124 14.3 77.4382 14.1855 77.5311 14.0862C77.5803 14.0335 77.6748 13.9293 77.7421 13.7984C77.7739 13.7365 77.8408 13.5919 77.8374 13.3994C77.833 13.1546 77.7146 12.911 77.492 12.7582L77.4368 12.7204L77.3759 12.6928L77.358 12.6847L77.2519 12.6366L77.1366 12.6229C76.9635 12.6022 76.806 12.6424 76.7554 12.6553L76.7521 12.6561C76.6721 12.6764 76.5891 12.7036 76.5145 12.7299C76.3642 12.7828 76.1925 12.852 76.0461 12.9115ZM42.0222 25.0369C42.0224 25.037 42.0236 25.0396 42.0254 25.0445C42.023 25.0393 42.0221 25.0369 42.0222 25.0369ZM76.4505 13.0346C76.4506 13.0345 76.4496 13.0359 76.4473 13.0386C76.4493 13.036 76.4504 13.0346 76.4505 13.0346Z" fill="#00A5F0" stroke="white" stroke-width="1.5"/>
</g>
</svg>
