<svg width="90" height="43" viewBox="0 0 90 43" fill="none" xmlns="http://www.w3.org/2000/svg">
<rect width="90" height="42.5811" rx="21.2905" fill="white"/>
<rect x="31.7648" y="3.5484" width="14.5588" height="35.4842" fill="#00A5F0"/>
<rect x="3.97064" y="3.5484" width="42.3529" height="35.4842" rx="17.7421" fill="#00A5F0"/>
<rect x="30.4412" y="3.5484" width="13.8971" height="35.4842" fill="#00A5F0"/>
<path d="M68.4029 11.9021L68.389 11.908L68.3753 11.9144C68.3244 11.9382 68.2641 11.9651 68.1932 11.9967C66.9192 12.5653 62.1889 14.6765 45.988 28.2791C45.9701 28.2935 45.9495 28.3106 45.938 28.32C45.9263 28.3295 45.9161 28.3378 45.9064 28.3454L45.7239 28.2568L45.6651 28.216C45.6082 28.1764 45.531 28.1224 45.4359 28.0556C45.2458 27.9223 44.9858 27.7394 44.6767 27.5217C44.2851 27.246 43.8153 26.9149 43.3095 26.5585C43.0167 26.3521 42.7117 26.1372 42.4029 25.9196C40.7222 24.7354 38.9207 23.4675 38.3448 23.0724L38.3431 23.0712C38.3064 23.0463 38.2702 23.0215 38.2347 22.9971C38.0685 22.8832 37.9165 22.7791 37.7985 22.7105C37.7255 22.6681 37.6141 22.608 37.4831 22.5714C37.3376 22.5308 37.1226 22.5071 36.8949 22.6056L36.8691 22.6168L36.8443 22.6298C36.4186 22.8539 36.4139 23.2891 36.4337 23.4457C36.4536 23.6028 36.513 23.7358 36.5456 23.8046C36.6189 23.9592 36.7316 24.1391 36.8333 24.2981C37.0299 24.6096 39.539 28.7345 41.6959 32.7427C42.6158 34.4602 43.4341 36.025 44.0304 37.1754C44.416 37.9192 44.7141 38.5001 44.8841 38.8315C44.9657 38.9905 45.0178 39.092 45.036 39.1265L45.0446 39.1431C45.1344 39.315 45.2513 39.5389 45.3903 39.7203C45.5379 39.913 45.8032 40.1822 46.2228 40.2337C46.4102 40.2568 46.6102 40.2449 46.8086 40.1695C47.0047 40.095 47.1488 39.9775 47.2538 39.8669C47.3529 39.7625 47.4318 39.6479 47.4897 39.5606C47.5256 39.5064 47.5495 39.4691 47.5722 39.4338C47.5994 39.3914 47.6247 39.352 47.6665 39.2898C47.6855 39.2616 47.7254 39.1994 47.786 39.1048C48.8654 37.4201 56.5108 25.4874 69.5031 13.4027L69.507 13.399C69.5212 13.3856 69.537 13.3708 69.5541 13.3548C69.6397 13.2747 69.7553 13.1665 69.8405 13.0727C69.8857 13.0231 69.9745 12.9224 70.0381 12.7953C70.0682 12.735 70.1313 12.5949 70.128 12.4081C70.1239 12.1722 70.0128 11.9275 69.7897 11.77L69.7338 11.7306L69.6719 11.7017L69.6558 11.6942L69.5472 11.6436L69.4289 11.6291C69.2554 11.6078 69.0997 11.6487 69.053 11.661L69.0492 11.662C68.9736 11.6818 68.8962 11.7079 68.8282 11.7325C68.6907 11.7823 68.5345 11.847 68.4029 11.9021ZM37.8906 23.1642C37.8908 23.1643 37.892 23.1669 37.8939 23.1719C37.8914 23.1666 37.8905 23.1641 37.8906 23.1642ZM68.7413 12.0344C68.7414 12.0343 68.7403 12.0359 68.7375 12.0391C68.7399 12.036 68.7412 12.0344 68.7413 12.0344Z" fill="white" stroke="#00A5F0" stroke-width="1.5"/>
</svg>
