<svg width="186" height="184" viewBox="0 0 186 184" fill="none" xmlns="http://www.w3.org/2000/svg">
<path d="M0.0820312 12C0.0820312 5.37258 5.45461 0 12.082 0H173.538C180.165 0 185.538 5.37258 185.538 12V172C185.538 178.627 180.165 184 173.538 184H12.082C5.4546 184 0.0820312 178.627 0.0820312 172V12Z" fill="#0073CE"/>
<path d="M153 78C153 124.667 93 164.667 93 164.667C93 164.667 33 124.667 33 78C33 62.087 39.3214 46.8258 50.5736 35.5736C61.8258 24.3214 77.087 18 93 18C108.913 18 124.174 24.3214 135.426 35.5736C146.679 46.8258 153 62.087 153 78Z" stroke="white" stroke-width="4" stroke-linecap="round" stroke-linejoin="round"/>
<path d="M93 98C104.046 98 113 89.0457 113 78C113 66.9543 104.046 58 93 58C81.9543 58 73 66.9543 73 78C73 89.0457 81.9543 98 93 98Z" stroke="white" stroke-width="4" stroke-linecap="round" stroke-linejoin="round"/>
</svg>
